<svg width="250" height="65" viewBox="0 0 250 65" fill="none" xmlns="http://www.w3.org/2000/svg">
<rect width="250" height="65" rx="32.5" fill="#2D4A22"/>
<g clip-path="url(#clip0)">
<path d="M39 33.6625C39 32.1321 39.3048 30.777 39.9145 29.5969C40.5421 28.4169 41.3849 27.5042 42.4428 26.8589C43.5187 26.1951 44.7111 25.8632 46.0201 25.8632C46.9884 25.8632 47.9388 26.0845 48.8712 26.527C49.8215 26.9511 50.5747 27.5227 51.1305 28.2417V20.885H54.2237V41.3511H51.1305V39.0556C50.6285 39.7931 49.9291 40.4015 49.0326 40.8809C48.1539 41.3603 47.1408 41.6 45.9932 41.6C44.7022 41.6 43.5187 41.2681 42.4428 40.6044C41.3849 39.9222 40.5421 38.9818 39.9145 37.7834C39.3048 36.5665 39 35.1928 39 33.6625ZM51.1305 33.7178C51.1305 32.6668 50.9154 31.7542 50.485 30.9798C50.0726 30.2054 49.5257 29.6154 48.8443 29.2097C48.1629 28.8041 47.4277 28.6013 46.6387 28.6013C45.8498 28.6013 45.1146 28.8041 44.4332 29.2097C43.7518 29.5969 43.1959 30.1777 42.7656 30.9521C42.3531 31.7081 42.1469 32.6115 42.1469 33.6625C42.1469 34.7134 42.3531 35.6353 42.7656 36.4282C43.1959 37.221 43.7518 37.8294 44.4332 38.2535C45.1325 38.6592 45.8677 38.862 46.6387 38.862C47.4277 38.862 48.1629 38.6592 48.8443 38.2535C49.5257 37.8479 50.0726 37.2579 50.485 36.4835C50.9154 35.6907 51.1305 34.7688 51.1305 33.7178Z" fill="white"/>
<path d="M71.834 33.3583C71.834 33.9298 71.7982 34.4461 71.7265 34.907H60.4028C60.4925 36.1239 60.9318 37.1012 61.7208 37.8387C62.5098 38.5762 63.4781 38.9449 64.6257 38.9449C66.2753 38.9449 67.4409 38.2351 68.1223 36.8154H71.4306C70.9823 38.2166 70.1664 39.369 68.983 40.2725C67.8174 41.1575 66.365 41.6 64.6257 41.6C63.2091 41.6 61.936 41.2773 60.8063 40.632C59.6945 39.9682 58.8159 39.0464 58.1704 37.8663C57.5428 36.6679 57.229 35.285 57.229 33.7178C57.229 32.1506 57.5338 30.777 58.1435 29.5969C58.7711 28.3985 59.6408 27.4766 60.7525 26.8312C61.8822 26.1859 63.1732 25.8633 64.6257 25.8633C66.0243 25.8633 67.2705 26.1767 68.3643 26.8036C69.4581 27.4305 70.3099 28.3155 70.9195 29.4586C71.5292 30.5834 71.834 31.8832 71.834 33.3583ZM68.6333 32.3626C68.6154 31.201 68.2119 30.2699 67.4229 29.5693C66.634 28.8686 65.6567 28.5183 64.4912 28.5183C63.4332 28.5183 62.5277 28.8686 61.7746 29.5693C61.0215 30.2515 60.5732 31.1826 60.4297 32.3626H68.6333Z" fill="white"/>
<path d="M80.5806 38.5301L84.7765 26.1122H88.031L82.3827 41.3511H78.7247L73.1032 26.1122H76.3847L80.5806 38.5301Z" fill="white"/>
<path d="M91.5861 41.5447C91.0302 41.5447 90.564 41.3511 90.1874 40.9639C89.8109 40.5767 89.6226 40.0973 89.6226 39.5257C89.6226 38.9542 89.8109 38.4748 90.1874 38.0876C90.564 37.7004 91.0302 37.5068 91.5861 37.5068C92.124 37.5068 92.5813 37.7004 92.9578 38.0876C93.3344 38.4748 93.5226 38.9542 93.5226 39.5257C93.5226 40.0973 93.3344 40.5767 92.9578 40.9639C92.5813 41.3511 92.124 41.5447 91.5861 41.5447Z" fill="white"/>
<path d="M103.05 28.6842H100.306V41.3511H97.2132V28.6842H95.4649V26.1122H97.2132V25.0335C97.2132 23.2819 97.6615 22.0097 98.5581 21.2169C99.4726 20.4056 100.898 20 102.835 20V22.6274C101.902 22.6274 101.248 22.8118 100.871 23.1805C100.495 23.5309 100.306 24.1485 100.306 25.0335V26.1122H103.05V28.6842Z" fill="white"/>
<path d="M107.327 24.0932C106.771 24.0932 106.305 23.8996 105.929 23.5124C105.552 23.1252 105.364 22.6458 105.364 22.0743C105.364 21.5027 105.552 21.0233 105.929 20.6361C106.305 20.2489 106.771 20.0553 107.327 20.0553C107.865 20.0553 108.322 20.2489 108.699 20.6361C109.076 21.0233 109.264 21.5027 109.264 22.0743C109.264 22.6458 109.076 23.1252 108.699 23.5124C108.322 23.8996 107.865 24.0932 107.327 24.0932ZM108.834 26.1122V41.3511H105.767V26.1122H108.834Z" fill="white"/>
<path d="M120.337 25.8633C121.502 25.8633 122.542 26.1122 123.457 26.61C124.389 27.1078 125.115 27.8453 125.635 28.8225C126.155 29.7997 126.415 30.9798 126.415 32.3626V41.3511H123.376V32.8328C123.376 31.4684 123.044 30.4266 122.381 29.7076C121.717 28.97 120.812 28.6013 119.664 28.6013C118.517 28.6013 117.602 28.97 116.921 29.7076C116.257 30.4266 115.925 31.4684 115.925 32.8328V41.3511H112.859V26.1122H115.925V27.8546C116.428 27.2277 117.064 26.7391 117.835 26.3887C118.624 26.0384 119.458 25.8633 120.337 25.8633Z" fill="white"/>
<path d="M129.304 33.6625C129.304 32.1321 129.609 30.777 130.219 29.5969C130.847 28.4169 131.689 27.5042 132.747 26.8589C133.823 26.1951 135.007 25.8633 136.298 25.8633C137.463 25.8633 138.476 26.103 139.337 26.5823C140.216 27.0433 140.915 27.6241 141.435 28.3247V26.1122H144.528V41.3511H141.435V39.0832C140.915 39.8023 140.207 40.4015 139.31 40.8809C138.413 41.3603 137.391 41.6 136.244 41.6C134.971 41.6 133.805 41.2681 132.747 40.6044C131.689 39.9222 130.847 38.9818 130.219 37.7834C129.609 36.5665 129.304 35.1928 129.304 33.6625ZM141.435 33.7178C141.435 32.6668 141.22 31.7542 140.789 30.9798C140.377 30.2054 139.83 29.6154 139.149 29.2097C138.467 28.8041 137.732 28.6013 136.943 28.6013C136.154 28.6013 135.419 28.8041 134.738 29.2097C134.056 29.5969 133.5 30.1777 133.07 30.9521C132.658 31.7081 132.451 32.6115 132.451 33.6625C132.451 34.7134 132.658 35.6353 133.07 36.4282C133.5 37.221 134.056 37.8294 134.738 38.2535C135.437 38.6592 136.172 38.862 136.943 38.862C137.732 38.862 138.467 38.6592 139.149 38.2535C139.83 37.8479 140.377 37.2579 140.789 36.4835C141.22 35.6907 141.435 34.7688 141.435 33.7178Z" fill="white"/>
<path d="M156.033 25.8633C157.198 25.8633 158.238 26.1122 159.153 26.61C160.085 27.1078 160.812 27.8453 161.332 28.8225C161.852 29.7997 162.112 30.9798 162.112 32.3626V41.3511H159.072V32.8328C159.072 31.4684 158.74 30.4266 158.077 29.7076C157.414 28.97 156.508 28.6013 155.36 28.6013C154.213 28.6013 153.298 28.97 152.617 29.7076C151.953 30.4266 151.622 31.4684 151.622 32.8328V41.3511H148.556V26.1122H151.622V27.8546C152.124 27.2277 152.76 26.7391 153.531 26.3887C154.32 26.0384 155.154 25.8633 156.033 25.8633Z" fill="white"/>
<path d="M165.001 33.7178C165.001 32.1506 165.306 30.777 165.915 29.5969C166.543 28.3985 167.403 27.4766 168.497 26.8312C169.591 26.1859 170.846 25.8633 172.263 25.8633C174.056 25.8633 175.535 26.3058 176.701 27.1908C177.884 28.0574 178.682 29.3019 179.095 30.9245H175.786C175.517 30.1685 175.087 29.5785 174.495 29.1544C173.904 28.7304 173.159 28.5183 172.263 28.5183C171.008 28.5183 170.004 28.9793 169.25 29.9012C168.515 30.8046 168.148 32.0768 168.148 33.7178C168.148 35.3588 168.515 36.6402 169.25 37.5621C170.004 38.484 171.008 38.9449 172.263 38.9449C174.038 38.9449 175.213 38.1429 175.786 36.5388H179.095C178.664 38.0876 177.857 39.3229 176.674 40.2448C175.49 41.1483 174.02 41.6 172.263 41.6C170.846 41.6 169.591 41.2773 168.497 40.632C167.403 39.9682 166.543 39.0464 165.915 37.8663C165.306 36.6679 165.001 35.285 165.001 33.7178Z" fill="white"/>
<path d="M195.733 33.3583C195.733 33.9298 195.698 34.4461 195.626 34.907H184.302C184.392 36.1239 184.831 37.1012 185.62 37.8387C186.409 38.5762 187.377 38.9449 188.525 38.9449C190.175 38.9449 191.34 38.2351 192.022 36.8154H195.33C194.882 38.2166 194.066 39.369 192.882 40.2725C191.717 41.1575 190.264 41.6 188.525 41.6C187.108 41.6 185.835 41.2773 184.706 40.632C183.594 39.9682 182.715 39.0464 182.07 37.8663C181.442 36.6679 181.128 35.285 181.128 33.7178C181.128 32.1506 181.433 30.777 182.043 29.5969C182.67 28.3985 183.54 27.4766 184.652 26.8312C185.782 26.1859 187.073 25.8633 188.525 25.8633C189.924 25.8633 191.17 26.1767 192.264 26.8036C193.358 27.4305 194.209 28.3155 194.819 29.4586C195.429 30.5834 195.733 31.8832 195.733 33.3583ZM192.533 32.3626C192.515 31.201 192.111 30.2699 191.322 29.5693C190.533 28.8686 189.556 28.5183 188.391 28.5183C187.333 28.5183 186.427 28.8686 185.674 29.5693C184.921 30.2515 184.473 31.1826 184.329 32.3626H192.533Z" fill="white"/>
<path d="M91.5865 41.5447C91.0307 41.5447 90.5644 41.3511 90.1879 40.9639C89.8113 40.5767 89.623 40.0974 89.623 39.5258C89.623 38.9542 89.8113 38.4748 90.1879 38.0876C90.5644 37.7004 91.0307 37.5068 91.5865 37.5068C92.1245 37.5068 92.5817 37.7004 92.9583 38.0876C93.3348 38.4748 93.5231 38.9542 93.5231 39.5258C93.5231 40.0974 93.3348 40.5767 92.9583 40.9639C92.5817 41.3511 92.1245 41.5447 91.5865 41.5447Z" fill="#49AA26"/>
<path d="M210.999 37.325C210.999 38.1057 210.773 38.8396 210.321 39.5266C209.886 40.2136 209.235 40.7914 208.366 41.2598C207.515 41.7282 206.502 42.0093 205.326 42.103V44.0001H203.561V42.103C201.86 41.9624 200.485 41.5018 199.435 40.7211C198.385 39.9404 197.86 38.9099 197.86 37.6295H201.172C201.227 38.2384 201.453 38.7459 201.851 39.1519C202.249 39.5422 202.819 39.7921 203.561 39.9014V34.7487C202.349 34.4832 201.362 34.2178 200.602 33.9523C199.842 33.6713 199.191 33.2341 198.648 32.6407C198.123 32.0474 197.86 31.2355 197.86 30.2049C197.86 28.9089 198.385 27.8394 199.435 26.9962C200.485 26.1374 201.86 25.6378 203.561 25.4972V23.6001H205.326V25.4972C206.918 25.6221 208.194 26.0593 209.153 26.8088C210.131 27.5427 210.683 28.5576 210.809 29.8536H207.497C207.443 29.3696 207.226 28.9402 206.846 28.5654C206.466 28.1751 205.959 27.9096 205.326 27.7691V32.8281C206.538 33.0779 207.524 33.3434 208.285 33.6244C209.045 33.8899 209.687 34.3193 210.212 34.9126C210.737 35.4903 210.999 36.2945 210.999 37.325ZM201.009 30.0644C201.009 30.7046 201.227 31.2042 201.661 31.5634C202.113 31.9225 202.747 32.2113 203.561 32.4299V27.6988C202.783 27.7769 202.159 28.0189 201.688 28.4249C201.236 28.8309 201.009 29.3774 201.009 30.0644ZM205.326 39.9014C206.122 39.7921 206.746 39.5188 207.199 39.0816C207.651 38.6288 207.877 38.0901 207.877 37.4655C207.877 36.841 207.651 36.3569 207.199 36.0134C206.764 35.6543 206.14 35.3654 205.326 35.1468V39.9014Z" fill="#49AA26"/>
</g>
<defs>
<clipPath id="clip0">
<rect width="172" height="24" fill="white" transform="translate(39 20)"/>
</clipPath>
</defs>
</svg>
